<svg width="231" height="260" viewBox="0 0 231 260" fill="none" xmlns="http://www.w3.org/2000/svg">
<path d="M7.49276 68.9636L10.5307 74.1377L10.5307 74.1377L7.49276 68.9636ZM114.493 6.13766L111.455 0.963606L111.455 0.963614L114.493 6.13766ZM115.507 6.13807L112.464 11.3097L112.464 11.3097L115.507 6.13807ZM224.048 69.986L227.09 64.8144L227.09 64.8144L224.048 69.986ZM224.055 71.7058L220.972 66.5587L220.972 66.5587L224.055 71.7058ZM120.001 134.04L123.084 139.187L123.084 139.187L120.001 134.04ZM118.993 134.052L121.957 128.835L121.957 128.835L118.993 134.052ZM7.50502 70.6954L4.54055 75.9119L4.54057 75.9119L7.50502 70.6954ZM115 253.34L112.015 258.545C113.896 259.623 116.211 259.604 118.073 258.493L115 253.34ZM223.512 188.631L226.585 193.784L226.585 193.784L223.512 188.631ZM223.509 132.55L226.565 127.386L226.565 127.386L223.509 132.55ZM115.491 68.6305L118.546 63.4668L118.546 63.4668L115.491 68.6305ZM113.5 7.7073L110.497 2.51256L110.497 2.51257L113.5 7.7073ZM6.49959 69.5513L9.50202 74.7461L9.50205 74.7461L6.49959 69.5513ZM6.49662 130.129L3.47635 135.314L3.47635 135.314L6.49662 130.129ZM114.503 193.051L117.524 187.866L117.524 187.866L114.503 193.051ZM7.43672 189.959L4.29909 184.844L4.29909 184.844L7.43672 189.959ZM7.46223 191.679L4.47763 196.884L4.47769 196.884L7.46223 191.679ZM10.5307 74.1377L117.531 11.3117L111.455 0.963614L4.45479 63.7896L10.5307 74.1377ZM112.464 11.3097L221.006 75.1576L227.09 64.8144L118.549 0.966461L112.464 11.3097ZM220.972 66.5587L116.917 128.893L123.084 139.187L227.138 76.8529L220.972 66.5587ZM121.957 128.835L10.4695 65.4789L4.54057 75.9119L116.028 139.268L121.957 128.835ZM116.917 128.893C118.464 127.967 120.39 127.944 121.957 128.835L116.028 139.268C118.223 140.515 120.919 140.484 123.084 139.187L116.917 128.893ZM221.006 75.1576C217.735 73.2333 217.716 68.5091 220.972 66.5587L227.138 76.8529C231.696 74.1223 231.67 67.5084 227.09 64.8144L221.006 75.1576ZM117.531 11.3117C115.967 12.2302 114.028 12.2294 112.464 11.3097L118.549 0.966474C116.36 -0.321137 113.645 -0.322222 111.455 0.963606L117.531 11.3117ZM4.4548 63.7896C-0.190708 66.5172 -0.143025 73.2503 4.54055 75.9119L10.4695 65.4789C13.8149 67.38 13.849 72.1893 10.5307 74.1377L4.4548 63.7896ZM0 70.4171V129.265H12V70.4171H0ZM109 193.915V253.34H121V193.915H109ZM118.073 258.493L226.585 193.784L220.439 183.478L111.927 248.187L118.073 258.493ZM230 187.772V133.41H218V187.772H230ZM226.565 127.386L118.546 63.4668L112.435 73.7942L220.454 137.713L226.565 127.386ZM121 67.7699V8.57309H109V67.7699H121ZM110.497 2.51257L3.49713 64.3566L9.50205 74.7461L116.502 12.902L110.497 2.51257ZM3.47635 135.314L53.9797 164.735L60.0203 154.367L9.51689 124.945L3.47635 135.314ZM53.9797 164.735L111.483 198.235L117.524 187.866L60.0203 154.367L53.9797 164.735ZM53.8624 154.437L4.29909 184.844L10.5743 195.073L60.1376 164.665L53.8624 154.437ZM4.47769 196.884L112.015 258.545L117.985 248.135L10.4468 186.473L4.47769 196.884ZM4.29909 184.844C-0.231332 187.624 -0.133097 194.24 4.47763 196.884L10.4468 186.474C13.7402 188.362 13.8104 193.088 10.5744 195.073L4.29909 184.844ZM121 8.57309C121 3.18299 115.164 -0.184651 110.497 2.51256L116.502 12.902C113.169 14.8286 109 12.4232 109 8.57309H121ZM118.546 63.4668C120.067 64.3668 121 66.0027 121 67.7699H109C109 70.2439 110.306 72.5342 112.435 73.7942L118.546 63.4668ZM226.585 193.784C228.703 192.521 230 190.238 230 187.772H218C218 186.011 218.927 184.38 220.439 183.478L226.585 193.784ZM121 193.915C121 191.424 119.676 189.12 117.524 187.866L111.483 198.235C109.946 197.339 109 195.694 109 193.915H121ZM0 129.265C0 131.756 1.32391 134.06 3.47635 135.314L9.5169 124.945C11.0543 125.841 12 127.486 12 129.265H0ZM230 133.41C230 130.936 228.694 128.646 226.565 127.386L220.454 137.713C218.933 136.813 218 135.178 218 133.41H230ZM12 70.4171C12 72.2026 11.0479 73.8526 9.50202 74.7461L3.49717 64.3566C1.33294 65.6075 0 67.9175 0 70.4171H12Z" fill="url(#paint0_linear_351_406)"/>
<defs>
<linearGradient id="paint0_linear_351_406" x1="136.5" y1="18" x2="110.5" y2="253" gradientUnits="userSpaceOnUse">
<stop stop-color="#1ABAFF"/>
<stop offset="1" stop-color="#59E456"/>
</linearGradient>
</defs>
</svg>
